<svg xmlns="http://www.w3.org/2000/svg" xmlns:xlink="http://www.w3.org/1999/xlink" width="500" zoomAndPan="magnify" viewBox="0 0 375 374.999991" height="500" preserveAspectRatio="xMidYMid meet" version="1.0"><defs><g/><clipPath id="7bd870cf14"><path d="M 67 19.347656 L 139 19.347656 L 139 113 L 67 113 Z M 67 19.347656 " clip-rule="nonzero"/></clipPath><clipPath id="d14e2f3432"><rect x="0" width="345" y="0" height="60"/></clipPath></defs><path fill="#79c653" d="M 263.773438 120.34375 C 265.257812 114.519531 269.765625 109.78125 274.960938 106.753906 C 280.15625 103.730469 286.09375 102.128906 291.917969 100.644531 C 297.742188 99.160156 303.679688 97.675781 308.933594 94.765625 C 315.5 91.167969 320.863281 85.457031 324.003906 78.664062 C 324.976562 90.769531 319.78125 103.273438 310.472656 111.09375 C 301.167969 118.914062 287.980469 121.882812 276.21875 118.800781 C 283.527344 115.71875 290.433594 111.664062 296.65625 106.699219 C 286.378906 112.976562 272.449219 112.0625 263.773438 120.398438 Z M 263.773438 120.34375 " fill-opacity="1" fill-rule="nonzero"/><path fill="#79c653" d="M 280.5 97.960938 C 288.835938 96.25 297.058594 93.625 304.308594 89.226562 C 311.617188 84.832031 317.894531 78.609375 321.4375 70.84375 C 324.976562 63.136719 325.488281 53.828125 321.894531 46.121094 C 312.871094 66.160156 298.769531 83.972656 280.5 97.960938 Z M 280.5 97.960938 " fill-opacity="1" fill-rule="nonzero"/><path fill="#79c653" d="M 252.640625 139.410156 C 256.636719 133.304688 263.03125 128.851562 270.050781 127.078125 C 277.015625 125.308594 284.324219 126.167969 291.460938 126.28125 C 298.65625 126.394531 306.25 125.59375 311.957031 121.199219 C 308.417969 131.363281 300.367188 139.8125 290.378906 143.863281 C 280.441406 147.917969 268.738281 147.519531 259.089844 142.722656 C 262.800781 138.382812 269.140625 137.757812 274.847656 137.472656 C 280.558594 137.183594 286.835938 136.785156 290.835938 132.730469 C 277.988281 139.125 267.484375 130.164062 252.582031 139.355469 Z M 252.640625 139.410156 " fill-opacity="1" fill-rule="nonzero"/><path fill="#79c653" d="M 245.558594 157.339844 C 245.332031 154.425781 246.988281 151.628906 249.441406 150.03125 C 251.839844 148.433594 254.867188 147.917969 257.777344 148.203125 C 260.6875 148.488281 263.429688 149.402344 266.167969 150.429688 C 268.910156 151.457031 271.535156 152.65625 274.335938 153.398438 C 279.988281 154.882812 286.039062 154.597656 291.519531 152.601562 C 286.324219 159.050781 279.929688 164.703125 272.335938 168.015625 C 264.742188 171.328125 255.835938 172.125 248.128906 169.15625 C 248.015625 166.53125 247.957031 163.960938 247.84375 161.335938 C 255.664062 162.589844 264 162.589844 271.023438 158.9375 C 266.226562 160.363281 261.03125 160.308594 256.292969 158.765625 C 254.636719 158.253906 253.039062 157.511719 251.324219 157.109375 C 249.613281 156.710938 247.785156 156.597656 245.558594 157.339844 Z M 245.558594 157.339844 " fill-opacity="1" fill-rule="nonzero"/><path fill="#054d3b" d="M 137.082031 220.65625 C 180.988281 223.851562 214.730469 211.921875 228.375 199.988281 C 254.75 176.863281 237.28125 151.515625 234.824219 144.4375 C 228.546875 126.507812 245.386719 124.851562 246.1875 132.5625 C 265.140625 102.585938 206.222656 83.402344 188.980469 125.652344 C 165.230469 120.457031 148.273438 100.132812 146.960938 78.609375 C 134.742188 117.203125 163.914062 151.742188 196.800781 148.546875 C 195.429688 110.351562 239.621094 100.359375 240.820312 123.882812 C 236.082031 121.3125 215.8125 119.488281 223.292969 157.511719 C 225.347656 168.015625 226.488281 178.863281 215.242188 190.394531 C 210.675781 195.078125 187.152344 212.949219 137.082031 220.597656 Z M 137.082031 220.65625 " fill-opacity="1" fill-rule="nonzero"/><path fill="#054d3b" d="M 222.324219 115.433594 C 226.148438 114.691406 230.199219 115.261719 233.683594 117.089844 C 233 116.6875 232.140625 116.746094 231.34375 116.859375 C 230.542969 117.03125 229.800781 117.316406 229.058594 117.429688 C 226.777344 117.886719 224.320312 117.316406 222.324219 115.433594 Z M 222.324219 115.433594 " fill-opacity="1" fill-rule="nonzero"/><path fill="#79c653" d="M 185.097656 163.105469 C 177.960938 157.910156 168.882812 155.054688 160.203125 156.597656 C 154.265625 157.625 148.84375 160.652344 143.648438 163.789062 C 138.453125 166.929688 133.371094 170.300781 127.605469 172.183594 C 121.839844 174.066406 115.273438 174.296875 110.019531 171.328125 C 118.070312 178.976562 127.71875 185.144531 138.339844 188.398438 C 148.957031 191.652344 160.660156 191.824219 171.167969 188 C 181.613281 184.171875 190.691406 176.238281 195.03125 166.015625 C 181.613281 172.125 166.714844 174.867188 152.039062 174.066406 C 163.289062 172.355469 174.191406 168.300781 185.097656 163.164062 Z M 185.097656 163.105469 " fill-opacity="1" fill-rule="nonzero"/><path fill="#79c653" d="M 160.546875 146.949219 C 148.101562 154.3125 134.171875 160.078125 119.667969 160.136719 C 105.167969 160.136719 90.09375 153.628906 82.84375 141.066406 C 90.378906 143.980469 98.828125 143.464844 106.765625 141.980469 C 114.703125 140.496094 122.523438 138.15625 130.574219 137.355469 C 138.625 136.558594 147.1875 137.585938 153.753906 142.324219 C 143.875 142.324219 134 145.179688 125.664062 150.488281 C 136.511719 144.835938 149.585938 143.464844 160.492188 146.949219 Z M 160.546875 146.949219 " fill-opacity="1" fill-rule="nonzero"/><path fill="#79c653" d="M 148.5 132.503906 C 129.601562 128.222656 109.792969 137.585938 90.78125 133.988281 C 76.105469 131.191406 63.316406 120.230469 58.292969 106.183594 C 73.136719 111.722656 88.839844 114.976562 104.652344 115.71875 C 110.933594 116.003906 117.269531 115.945312 123.550781 116.859375 C 129.773438 117.773438 136.054688 119.714844 140.964844 123.652344 C 130.230469 119.886719 118.414062 126.109375 107.222656 124.109375 C 111.847656 125.996094 117.042969 125.878906 122.007812 125.480469 C 126.976562 125.082031 132 124.394531 136.910156 125.195312 C 141.820312 125.996094 146.789062 128.507812 148.5 132.503906 Z M 148.5 132.503906 " fill-opacity="1" fill-rule="nonzero"/><path fill="#79c653" d="M 122.351562 111.378906 C 108.480469 109.039062 93.917969 110.410156 80.503906 106.070312 C 70.511719 102.816406 61.375 96.25 56.066406 87.171875 C 50.757812 78.09375 49.5 66.503906 53.667969 56.855469 C 57.4375 68.214844 66.34375 77.007812 75.765625 84.375 C 89.921875 95.507812 105.851562 104.355469 122.296875 111.378906 Z M 122.351562 111.378906 " fill-opacity="1" fill-rule="nonzero"/><g clip-path="url(#7bd870cf14)"><path fill="#79c653" d="M 138.796875 112.40625 C 137.023438 100.644531 131.488281 89.457031 123.152344 80.949219 C 117.785156 75.46875 111.332031 71.128906 105.28125 66.390625 C 97.574219 60.394531 90.378906 53.65625 84.5 45.835938 C 78.675781 38.015625 74.28125 28.992188 72.511719 19.402344 C 69.371094 27.910156 67.199219 36.929688 67.3125 46.007812 C 67.429688 55.085938 69.941406 64.277344 75.480469 71.527344 C 80.046875 77.464844 86.328125 81.746094 92.550781 85.914062 C 103.683594 93.394531 114.816406 100.929688 126.691406 107.152344 C 119.898438 94.820312 110.191406 84.144531 98.601562 76.152344 C 107.621094 79.519531 115.671875 85.457031 121.496094 93.109375 C 126.863281 100.132812 130.746094 108.867188 138.738281 112.464844 Z M 138.796875 112.40625 " fill-opacity="1" fill-rule="nonzero"/></g><path fill="#79c653" d="M 228.375 214.433594 C 246.53125 218.429688 263.941406 225.90625 279.359375 236.242188 C 270.851562 234.644531 262.628906 231.390625 255.320312 226.648438 C 256.976562 230.988281 258.746094 235.441406 261.832031 238.925781 C 266.113281 243.777344 272.621094 246.289062 279.128906 246.859375 C 285.582031 247.433594 292.089844 246.234375 298.425781 244.75 C 291.40625 233.785156 282.554688 223.339844 270.625 218.085938 C 258.003906 212.546875 243.617188 213.40625 228.375 214.488281 Z M 228.375 214.433594 " fill-opacity="1" fill-rule="nonzero"/><path fill="#79c653" d="M 212.332031 228.589844 C 226.148438 233.273438 239.164062 240.464844 250.414062 249.773438 C 243.960938 247.890625 237.964844 244.691406 232.828125 240.351562 C 234.140625 246.746094 238.023438 252.570312 243.445312 256.167969 C 248.871094 259.765625 255.722656 261.132812 262.171875 259.878906 C 260.574219 249.828125 252.925781 241.496094 243.960938 236.640625 C 234.996094 231.789062 224.71875 229.960938 212.386719 228.535156 Z M 212.332031 228.589844 " fill-opacity="1" fill-rule="nonzero"/><path fill="#79c653" d="M 210.617188 240.179688 C 219.410156 248.289062 225.863281 258.792969 229.171875 270.269531 C 226.890625 263.359375 222.894531 256.964844 217.640625 251.941406 C 216.785156 257.9375 217.242188 264.503906 220.152344 269.753906 C 223.121094 275.066406 228.546875 279.117188 233.625 282.429688 C 235.109375 274.378906 233.855469 265.875 230.085938 258.621094 C 226.375 251.371094 220.152344 245.375 210.617188 240.179688 Z M 210.617188 240.179688 " fill-opacity="1" fill-rule="nonzero"/><path fill="#79c653" d="M 200.457031 222.3125 C 204.851562 233.671875 208.847656 245.433594 209.132812 257.59375 C 209.417969 269.753906 205.480469 282.542969 196.34375 290.59375 C 193.777344 292.820312 190.863281 294.648438 188.238281 296.875 C 185.613281 299.101562 183.214844 301.671875 182.128906 304.925781 C 179.789062 298.53125 177.390625 292.136719 176.132812 285.457031 C 174.933594 278.777344 174.878906 271.695312 177.160156 265.300781 C 179.617188 258.449219 184.46875 252.800781 189.035156 247.089844 C 193.605469 241.378906 198 235.214844 199.257812 228.019531 C 201.484375 237.097656 198.515625 246.519531 195.089844 255.253906 C 191.71875 263.933594 187.78125 272.839844 188.179688 282.144531 C 192.578125 275.121094 196.972656 268.042969 199.371094 260.105469 C 202.96875 248.058594 201.597656 235.15625 200.398438 222.367188 Z M 200.457031 222.3125 " fill-opacity="1" fill-rule="nonzero"/><path fill="#79c653" d="M 176.132812 245.664062 C 170.824219 249.886719 164.828125 253.027344 159.234375 256.796875 C 153.640625 260.5625 148.328125 265.132812 145.246094 271.183594 C 141.25 279.175781 141.765625 288.652344 142.449219 297.558594 C 150.441406 295.390625 157.636719 290.136719 162.089844 283.171875 C 166.597656 276.207031 168.425781 267.527344 167.113281 259.308594 C 161.0625 265.644531 156.207031 273.179688 152.898438 281.289062 C 153.925781 273.753906 157.292969 266.5 162.488281 260.90625 C 167.054688 255.9375 173.050781 252.058594 176.078125 245.664062 Z M 176.132812 245.664062 " fill-opacity="1" fill-rule="nonzero"/><path fill="#79c653" d="M 180.246094 229.164062 C 169.910156 235.5 157.234375 236.183594 145.1875 237.097656 C 133.085938 238.011719 120.296875 239.667969 110.933594 247.375 C 100.65625 255.882812 96.375 270.382812 85.242188 277.75 C 94.433594 279.0625 103.796875 279.632812 112.933594 278.035156 C 122.066406 276.433594 130.972656 272.496094 137.367188 265.816406 C 142.847656 260.105469 146.503906 252.34375 153.523438 248.632812 C 140.28125 254.453125 126.976562 260.277344 113.730469 266.101562 C 123.039062 257.480469 135.371094 252.96875 147.300781 248.515625 C 159.234375 244.0625 171.453125 239.152344 180.246094 229.105469 Z M 180.246094 229.164062 " fill-opacity="1" fill-rule="nonzero"/><g transform="matrix(1, 0, 0, 1, 17, 300)"><g clip-path="url(#d14e2f3432)"><g fill="#054d3b" fill-opacity="1"><g transform="translate(0.945126, 44.338076)"><g><path d="M 22.5 -20.453125 C 21.96875 -21.453125 21.195312 -22.210938 20.1875 -22.734375 C 19.175781 -23.265625 17.988281 -23.53125 16.625 -23.53125 C 14.257812 -23.53125 12.367188 -22.753906 10.953125 -21.203125 C 9.535156 -19.660156 8.828125 -17.59375 8.828125 -15 C 8.828125 -12.25 9.570312 -10.097656 11.0625 -8.546875 C 12.550781 -6.992188 14.601562 -6.21875 17.21875 -6.21875 C 19.007812 -6.21875 20.519531 -6.671875 21.75 -7.578125 C 22.988281 -8.492188 23.894531 -9.804688 24.46875 -11.515625 L 15.21875 -11.515625 L 15.21875 -16.875 L 31.078125 -16.875 L 31.078125 -10.109375 C 30.535156 -8.285156 29.617188 -6.59375 28.328125 -5.03125 C 27.035156 -3.46875 25.394531 -2.203125 23.40625 -1.234375 C 21.414062 -0.265625 19.171875 0.21875 16.671875 0.21875 C 13.710938 0.21875 11.070312 -0.425781 8.75 -1.71875 C 6.4375 -3.019531 4.632812 -4.820312 3.34375 -7.125 C 2.050781 -9.425781 1.40625 -12.050781 1.40625 -15 C 1.40625 -17.957031 2.050781 -20.59375 3.34375 -22.90625 C 4.632812 -25.226562 6.429688 -27.035156 8.734375 -28.328125 C 11.035156 -29.617188 13.664062 -30.265625 16.625 -30.265625 C 20.207031 -30.265625 23.226562 -29.394531 25.6875 -27.65625 C 28.144531 -25.925781 29.769531 -23.523438 30.5625 -20.453125 Z M 22.5 -20.453125 "/></g></g></g><g fill="#054d3b" fill-opacity="1"><g transform="translate(37.377586, 44.338076)"><g><path d="M 9.9375 -19.828125 C 10.78125 -21.128906 11.84375 -22.15625 13.125 -22.90625 C 14.40625 -23.664062 15.828125 -24.046875 17.390625 -24.046875 L 17.390625 -16.328125 L 15.390625 -16.328125 C 13.566406 -16.328125 12.203125 -15.9375 11.296875 -15.15625 C 10.390625 -14.375 9.9375 -13.003906 9.9375 -11.046875 L 9.9375 0 L 2.640625 0 L 2.640625 -23.78125 L 9.9375 -23.78125 Z M 9.9375 -19.828125 "/></g></g></g><g fill="#054d3b" fill-opacity="1"><g transform="translate(59.578395, 44.338076)"><g><path d="M 25.0625 -12.28125 C 25.0625 -11.59375 25.019531 -10.878906 24.9375 -10.140625 L 8.4375 -10.140625 C 8.550781 -8.660156 9.023438 -7.53125 9.859375 -6.75 C 10.703125 -5.96875 11.734375 -5.578125 12.953125 -5.578125 C 14.773438 -5.578125 16.039062 -6.347656 16.75 -7.890625 L 24.515625 -7.890625 C 24.109375 -6.328125 23.382812 -4.921875 22.34375 -3.671875 C 21.3125 -2.421875 20.015625 -1.4375 18.453125 -0.71875 C 16.890625 -0.0078125 15.144531 0.34375 13.21875 0.34375 C 10.882812 0.34375 8.804688 -0.148438 6.984375 -1.140625 C 5.171875 -2.140625 3.75 -3.5625 2.71875 -5.40625 C 1.695312 -7.257812 1.1875 -9.421875 1.1875 -11.890625 C 1.1875 -14.359375 1.691406 -16.515625 2.703125 -18.359375 C 3.710938 -20.210938 5.125 -21.632812 6.9375 -22.625 C 8.757812 -23.625 10.851562 -24.125 13.21875 -24.125 C 15.519531 -24.125 17.5625 -23.640625 19.34375 -22.671875 C 21.132812 -21.710938 22.535156 -20.335938 23.546875 -18.546875 C 24.554688 -16.753906 25.0625 -14.664062 25.0625 -12.28125 Z M 17.609375 -14.1875 C 17.609375 -15.4375 17.179688 -16.429688 16.328125 -17.171875 C 15.472656 -17.910156 14.40625 -18.28125 13.125 -18.28125 C 11.90625 -18.28125 10.875 -17.925781 10.03125 -17.21875 C 9.195312 -16.507812 8.679688 -15.5 8.484375 -14.1875 Z M 17.609375 -14.1875 "/></g></g></g><g fill="#054d3b" fill-opacity="1"><g transform="translate(89.78983, 44.338076)"><g><path d="M 25.0625 -12.28125 C 25.0625 -11.59375 25.019531 -10.878906 24.9375 -10.140625 L 8.4375 -10.140625 C 8.550781 -8.660156 9.023438 -7.53125 9.859375 -6.75 C 10.703125 -5.96875 11.734375 -5.578125 12.953125 -5.578125 C 14.773438 -5.578125 16.039062 -6.347656 16.75 -7.890625 L 24.515625 -7.890625 C 24.109375 -6.328125 23.382812 -4.921875 22.34375 -3.671875 C 21.3125 -2.421875 20.015625 -1.4375 18.453125 -0.71875 C 16.890625 -0.0078125 15.144531 0.34375 13.21875 0.34375 C 10.882812 0.34375 8.804688 -0.148438 6.984375 -1.140625 C 5.171875 -2.140625 3.75 -3.5625 2.71875 -5.40625 C 1.695312 -7.257812 1.1875 -9.421875 1.1875 -11.890625 C 1.1875 -14.359375 1.691406 -16.515625 2.703125 -18.359375 C 3.710938 -20.210938 5.125 -21.632812 6.9375 -22.625 C 8.757812 -23.625 10.851562 -24.125 13.21875 -24.125 C 15.519531 -24.125 17.5625 -23.640625 19.34375 -22.671875 C 21.132812 -21.710938 22.535156 -20.335938 23.546875 -18.546875 C 24.554688 -16.753906 25.0625 -14.664062 25.0625 -12.28125 Z M 17.609375 -14.1875 C 17.609375 -15.4375 17.179688 -16.429688 16.328125 -17.171875 C 15.472656 -17.910156 14.40625 -18.28125 13.125 -18.28125 C 11.90625 -18.28125 10.875 -17.925781 10.03125 -17.21875 C 9.195312 -16.507812 8.679688 -15.5 8.484375 -14.1875 Z M 17.609375 -14.1875 "/></g></g></g><g fill="#054d3b" fill-opacity="1"><g transform="translate(120.001266, 44.338076)"><g><path d="M 17.140625 -24.046875 C 19.921875 -24.046875 22.140625 -23.140625 23.796875 -21.328125 C 25.460938 -19.523438 26.296875 -17.046875 26.296875 -13.890625 L 26.296875 0 L 19.046875 0 L 19.046875 -12.921875 C 19.046875 -14.503906 18.632812 -15.734375 17.8125 -16.609375 C 16.988281 -17.492188 15.882812 -17.9375 14.5 -17.9375 C 13.101562 -17.9375 11.992188 -17.492188 11.171875 -16.609375 C 10.347656 -15.734375 9.9375 -14.503906 9.9375 -12.921875 L 9.9375 0 L 2.640625 0 L 2.640625 -23.78125 L 9.9375 -23.78125 L 9.9375 -20.625 C 10.675781 -21.675781 11.671875 -22.507812 12.921875 -23.125 C 14.171875 -23.738281 15.578125 -24.046875 17.140625 -24.046875 Z M 17.140625 -24.046875 "/></g></g></g><g fill="#054d3b" fill-opacity="1"><g transform="translate(152.684067, 44.338076)"><g/></g></g><g fill="#054d3b" fill-opacity="1"><g transform="translate(165.681192, 44.338076)"><g><path d="M 22.5 -20.453125 C 21.96875 -21.453125 21.195312 -22.210938 20.1875 -22.734375 C 19.175781 -23.265625 17.988281 -23.53125 16.625 -23.53125 C 14.257812 -23.53125 12.367188 -22.753906 10.953125 -21.203125 C 9.535156 -19.660156 8.828125 -17.59375 8.828125 -15 C 8.828125 -12.25 9.570312 -10.097656 11.0625 -8.546875 C 12.550781 -6.992188 14.601562 -6.21875 17.21875 -6.21875 C 19.007812 -6.21875 20.519531 -6.671875 21.75 -7.578125 C 22.988281 -8.492188 23.894531 -9.804688 24.46875 -11.515625 L 15.21875 -11.515625 L 15.21875 -16.875 L 31.078125 -16.875 L 31.078125 -10.109375 C 30.535156 -8.285156 29.617188 -6.59375 28.328125 -5.03125 C 27.035156 -3.46875 25.394531 -2.203125 23.40625 -1.234375 C 21.414062 -0.265625 19.171875 0.21875 16.671875 0.21875 C 13.710938 0.21875 11.070312 -0.425781 8.75 -1.71875 C 6.4375 -3.019531 4.632812 -4.820312 3.34375 -7.125 C 2.050781 -9.425781 1.40625 -12.050781 1.40625 -15 C 1.40625 -17.957031 2.050781 -20.59375 3.34375 -22.90625 C 4.632812 -25.226562 6.429688 -27.035156 8.734375 -28.328125 C 11.035156 -29.617188 13.664062 -30.265625 16.625 -30.265625 C 20.207031 -30.265625 23.226562 -29.394531 25.6875 -27.65625 C 28.144531 -25.925781 29.769531 -23.523438 30.5625 -20.453125 Z M 22.5 -20.453125 "/></g></g></g><g fill="#054d3b" fill-opacity="1"><g transform="translate(202.113652, 44.338076)"><g><path d="M 9.9375 -19.828125 C 10.78125 -21.128906 11.84375 -22.15625 13.125 -22.90625 C 14.40625 -23.664062 15.828125 -24.046875 17.390625 -24.046875 L 17.390625 -16.328125 L 15.390625 -16.328125 C 13.566406 -16.328125 12.203125 -15.9375 11.296875 -15.15625 C 10.390625 -14.375 9.9375 -13.003906 9.9375 -11.046875 L 9.9375 0 L 2.640625 0 L 2.640625 -23.78125 L 9.9375 -23.78125 Z M 9.9375 -19.828125 "/></g></g></g><g fill="#054d3b" fill-opacity="1"><g transform="translate(224.314461, 44.338076)"><g><path d="M 13.46875 0.34375 C 11.132812 0.34375 9.035156 -0.148438 7.171875 -1.140625 C 5.316406 -2.140625 3.851562 -3.5625 2.78125 -5.40625 C 1.71875 -7.257812 1.1875 -9.421875 1.1875 -11.890625 C 1.1875 -14.335938 1.726562 -16.488281 2.8125 -18.34375 C 3.894531 -20.207031 5.375 -21.632812 7.25 -22.625 C 9.125 -23.625 11.226562 -24.125 13.5625 -24.125 C 15.882812 -24.125 17.984375 -23.625 19.859375 -22.625 C 21.734375 -21.632812 23.210938 -20.207031 24.296875 -18.34375 C 25.378906 -16.488281 25.921875 -14.335938 25.921875 -11.890625 C 25.921875 -9.453125 25.375 -7.300781 24.28125 -5.4375 C 23.1875 -3.570312 21.691406 -2.140625 19.796875 -1.140625 C 17.910156 -0.148438 15.800781 0.34375 13.46875 0.34375 Z M 13.46875 -5.96875 C 14.863281 -5.96875 16.050781 -6.476562 17.03125 -7.5 C 18.007812 -8.519531 18.5 -9.984375 18.5 -11.890625 C 18.5 -13.796875 18.019531 -15.257812 17.0625 -16.28125 C 16.113281 -17.300781 14.945312 -17.8125 13.5625 -17.8125 C 12.132812 -17.8125 10.953125 -17.304688 10.015625 -16.296875 C 9.078125 -15.296875 8.609375 -13.828125 8.609375 -11.890625 C 8.609375 -9.984375 9.066406 -8.519531 9.984375 -7.5 C 10.910156 -6.476562 12.070312 -5.96875 13.46875 -5.96875 Z M 13.46875 -5.96875 "/></g></g></g><g fill="#054d3b" fill-opacity="1"><g transform="translate(255.420706, 44.338076)"><g><path d="M 13.34375 -6.8125 L 18.5 -23.78125 L 26.25 -23.78125 L 17.8125 0 L 8.828125 0 L 0.390625 -23.78125 L 8.1875 -23.78125 Z M 13.34375 -6.8125 "/></g></g></g><g fill="#054d3b" fill-opacity="1"><g transform="translate(286.058266, 44.338076)"><g><path d="M 25.0625 -12.28125 C 25.0625 -11.59375 25.019531 -10.878906 24.9375 -10.140625 L 8.4375 -10.140625 C 8.550781 -8.660156 9.023438 -7.53125 9.859375 -6.75 C 10.703125 -5.96875 11.734375 -5.578125 12.953125 -5.578125 C 14.773438 -5.578125 16.039062 -6.347656 16.75 -7.890625 L 24.515625 -7.890625 C 24.109375 -6.328125 23.382812 -4.921875 22.34375 -3.671875 C 21.3125 -2.421875 20.015625 -1.4375 18.453125 -0.71875 C 16.890625 -0.0078125 15.144531 0.34375 13.21875 0.34375 C 10.882812 0.34375 8.804688 -0.148438 6.984375 -1.140625 C 5.171875 -2.140625 3.75 -3.5625 2.71875 -5.40625 C 1.695312 -7.257812 1.1875 -9.421875 1.1875 -11.890625 C 1.1875 -14.359375 1.691406 -16.515625 2.703125 -18.359375 C 3.710938 -20.210938 5.125 -21.632812 6.9375 -22.625 C 8.757812 -23.625 10.851562 -24.125 13.21875 -24.125 C 15.519531 -24.125 17.5625 -23.640625 19.34375 -22.671875 C 21.132812 -21.710938 22.535156 -20.335938 23.546875 -18.546875 C 24.554688 -16.753906 25.0625 -14.664062 25.0625 -12.28125 Z M 17.609375 -14.1875 C 17.609375 -15.4375 17.179688 -16.429688 16.328125 -17.171875 C 15.472656 -17.910156 14.40625 -18.28125 13.125 -18.28125 C 11.90625 -18.28125 10.875 -17.925781 10.03125 -17.21875 C 9.195312 -16.507812 8.679688 -15.5 8.484375 -14.1875 Z M 17.609375 -14.1875 "/></g></g></g><g fill="#054d3b" fill-opacity="1"><g transform="translate(316.269701, 44.338076)"><g><path d="M 12.3125 0.34375 C 10.238281 0.34375 8.390625 -0.0078125 6.765625 -0.71875 C 5.148438 -1.4375 3.875 -2.410156 2.9375 -3.640625 C 2 -4.878906 1.472656 -6.265625 1.359375 -7.796875 L 8.5625 -7.796875 C 8.65625 -6.972656 9.039062 -6.304688 9.71875 -5.796875 C 10.394531 -5.285156 11.234375 -5.03125 12.234375 -5.03125 C 13.140625 -5.03125 13.84375 -5.207031 14.34375 -5.5625 C 14.84375 -5.914062 15.09375 -6.378906 15.09375 -6.953125 C 15.09375 -7.628906 14.734375 -8.128906 14.015625 -8.453125 C 13.304688 -8.785156 12.160156 -9.148438 10.578125 -9.546875 C 8.867188 -9.941406 7.445312 -10.359375 6.3125 -10.796875 C 5.175781 -11.242188 4.191406 -11.941406 3.359375 -12.890625 C 2.535156 -13.847656 2.125 -15.132812 2.125 -16.75 C 2.125 -18.113281 2.5 -19.359375 3.25 -20.484375 C 4.007812 -21.609375 5.117188 -22.492188 6.578125 -23.140625 C 8.046875 -23.796875 9.789062 -24.125 11.8125 -24.125 C 14.789062 -24.125 17.140625 -23.382812 18.859375 -21.90625 C 20.578125 -20.425781 21.566406 -18.46875 21.828125 -16.03125 L 15.09375 -16.03125 C 14.976562 -16.851562 14.613281 -17.503906 14 -17.984375 C 13.382812 -18.472656 12.582031 -18.71875 11.59375 -18.71875 C 10.738281 -18.71875 10.082031 -18.550781 9.625 -18.21875 C 9.175781 -17.894531 8.953125 -17.445312 8.953125 -16.875 C 8.953125 -16.195312 9.3125 -15.6875 10.03125 -15.34375 C 10.757812 -15 11.890625 -14.660156 13.421875 -14.328125 C 15.179688 -13.867188 16.613281 -13.414062 17.71875 -12.96875 C 18.832031 -12.53125 19.804688 -11.820312 20.640625 -10.84375 C 21.484375 -9.863281 21.921875 -8.550781 21.953125 -6.90625 C 21.953125 -5.507812 21.5625 -4.265625 20.78125 -3.171875 C 20 -2.078125 18.875 -1.21875 17.40625 -0.59375 C 15.945312 0.03125 14.25 0.34375 12.3125 0.34375 Z M 12.3125 0.34375 "/></g></g></g></g></g></svg>